<?xml version="1.0" encoding="iso-8859-1"?>
<!-- Generator: Adobe Illustrator 19.0.0, SVG Export Plug-In . SVG Version: 6.00 Build 0)  -->
<svg version="1.1" id="Layer_1" xmlns="http://www.w3.org/2000/svg" xmlns:xlink="http://www.w3.org/1999/xlink" x="0px" y="0px"
	 viewBox="0 0 512.904 512.904" style="enable-background:new 0 0 512.904 512.904;" xml:space="preserve">
<g transform="translate(1)">
	<polygon style="fill:#E2E3E5;" points="254.899,0.893 254.899,512.893 484.416,512.893 484.416,239.238 484.416,198.631 	"/>
	<polygon style="fill:#FFFFFF;" points="51.864,198.631 51.864,239.238 51.864,504.066 254.899,504.066 254.899,9.721 	"/>
	<polygon style="fill:#CCCCCC;" points="254.899,9.721 254.899,504.066 457.933,504.066 457.933,239.238 457.933,198.631 	"/>
	<polygon style="fill:#E2E3E5;" points="254.899,9.721 78.347,203.928 78.347,239.238 78.347,504.066 431.451,504.066 
		431.451,239.238 431.451,212.755 	"/>
	<path style="fill:#E0E0E0;" d="M316.692,504.066H193.106V353.997c0-34.428,27.366-61.793,61.793-61.793
		s61.793,27.366,61.793,61.793V504.066z"/>
	<path style="fill:#F0F0F0;" d="M290.209,504.066h-97.103V353.997c0-34.428,27.366-61.793,61.793-61.793s35.31,27.366,35.31,61.793
		V504.066z"/>
	<g>
		<path style="fill:#B6B6B6;" d="M502.071,248.066c-1.766,0-4.414-0.883-6.179-2.648L254.899,22.08L13.906,245.417
			c-3.531,3.531-8.828,3.531-12.359-0.883c-3.531-3.531-3.531-8.828,0.883-12.359L249.602,2.659c3.531-3.531,8.828-3.531,12.359,0
			l247.172,229.517c3.531,3.531,3.531,8.828,0.883,12.359C506.485,247.183,504.72,248.066,502.071,248.066z"/>
		<path style="fill:#B6B6B6;" d="M316.692,512.893H193.106c-5.297,0-8.828-3.531-8.828-8.828V353.997
			c0-38.841,31.779-70.621,70.621-70.621s70.621,31.779,70.621,70.621v150.069C325.52,509.362,321.989,512.893,316.692,512.893z
			 M201.933,495.238h105.931V353.997c0-29.131-23.834-52.966-52.966-52.966s-52.966,23.835-52.966,52.966V495.238z"/>
		<path style="fill:#B6B6B6;" d="M457.933,362.824c-5.297,0-8.828-3.531-8.828-8.828V202.162L254.899,22.08L60.692,202.162v37.076
			c0,5.297-3.531,8.828-8.828,8.828s-8.828-3.531-8.828-8.828v-40.607c0-2.648,0.883-4.414,2.648-6.179L248.72,3.542
			c3.531-3.531,8.828-3.531,12.359,0l203.034,188.91c1.766,1.766,2.648,4.414,2.648,6.179v155.366
			C466.761,359.293,463.23,362.824,457.933,362.824z"/>
		<path style="fill:#B6B6B6;" d="M457.933,512.893H51.864c-5.297,0-8.828-3.531-8.828-8.828V309.859
			c0-5.297,3.531-8.828,8.828-8.828s8.828,3.531,8.828,8.828v185.379h388.414v-70.621c0-5.297,3.531-8.828,8.828-8.828
			s8.828,3.531,8.828,8.828v79.448C466.761,509.362,463.23,512.893,457.933,512.893z"/>
		<path style="fill:#B6B6B6;" d="M60.692,274.548c0,5.297-3.531,8.828-8.828,8.828s-8.828-3.531-8.828-8.828
			c0-5.297,3.531-8.828,8.828-8.828S60.692,269.252,60.692,274.548"/>
		<path style="fill:#B6B6B6;" d="M466.761,389.307c0,5.297-3.531,8.828-8.828,8.828s-8.828-3.531-8.828-8.828
			s3.531-8.828,8.828-8.828S466.761,384.011,466.761,389.307"/>
	</g>
</g>
<g>
</g>
<g>
</g>
<g>
</g>
<g>
</g>
<g>
</g>
<g>
</g>
<g>
</g>
<g>
</g>
<g>
</g>
<g>
</g>
<g>
</g>
<g>
</g>
<g>
</g>
<g>
</g>
<g>
</g>
</svg>
