<?xml version="1.0" encoding="iso-8859-1"?>
<!-- Generator: Adobe Illustrator 19.0.0, SVG Export Plug-In . SVG Version: 6.00 Build 0)  -->
<svg version="1.1" id="Layer_1" xmlns="http://www.w3.org/2000/svg" xmlns:xlink="http://www.w3.org/1999/xlink" x="0px" y="0px"
	 viewBox="0 0 512.904 512.904" style="enable-background:new 0 0 512.904 512.904;" xml:space="preserve">
<g transform="translate(1)">
	<polygon style="fill:#E2E3E5;" points="254.899,0.893 254.899,512.893 484.416,512.893 484.416,239.238 484.416,198.631 	"/>
	<polygon style="fill:#FFFFFF;" points="51.864,198.631 51.864,239.238 51.864,504.066 254.899,504.066 254.899,9.721 	"/>
	<polygon style="fill:#CCCCCC;" points="254.899,9.721 254.899,504.066 457.933,504.066 457.933,239.238 457.933,198.631 	"/>
	<polygon style="fill:#E2E3E5;" points="254.899,9.721 78.347,203.928 78.347,239.238 78.347,504.066 431.451,504.066 
		431.451,239.238 431.451,212.755 	"/>
	<path style="fill:#B6B6B6;" d="M502.071,248.066c-1.766,0-4.414-0.883-6.179-2.648L254.899,22.08L13.906,245.417
		c-3.531,3.531-8.828,3.531-12.359-0.883c-3.531-3.531-3.531-8.828,0.883-12.359L249.602,2.659c3.531-3.531,8.828-3.531,12.359,0
		l247.172,229.517c3.531,3.531,3.531,8.828,0.883,12.359C506.485,247.183,504.72,248.066,502.071,248.066z"/>
	<polygon style="fill:#E0E0E0;" points="122.485,301.031 228.416,301.031 228.416,195.1 122.485,195.1 	"/>
	<polygon style="fill:#F0F0F0;" points="122.485,301.031 210.761,301.031 210.761,195.1 122.485,195.1 	"/>
	<polygon style="fill:#E0E0E0;" points="281.382,301.031 387.313,301.031 387.313,195.1 281.382,195.1 	"/>
	<polygon style="fill:#F0F0F0;" points="281.382,301.031 369.658,301.031 369.658,195.1 281.382,195.1 	"/>
	<polygon style="fill:#E0E0E0;" points="122.485,459.928 228.416,459.928 228.416,353.997 122.485,353.997 	"/>
	<polygon style="fill:#F0F0F0;" points="122.485,459.928 210.761,459.928 210.761,353.997 122.485,353.997 	"/>
	<polygon style="fill:#E0E0E0;" points="281.382,459.928 387.313,459.928 387.313,353.997 281.382,353.997 	"/>
	<polygon style="fill:#F0F0F0;" points="281.382,459.928 369.658,459.928 369.658,353.997 281.382,353.997 	"/>
	<g>
		<path style="fill:#B6B6B6;" d="M228.416,309.859H122.485c-5.297,0-8.828-3.531-8.828-8.828V195.1c0-5.297,3.531-8.828,8.828-8.828
			h105.931c5.297,0,8.828,3.531,8.828,8.828v105.931C237.244,306.328,233.713,309.859,228.416,309.859z M131.313,292.204h88.276
			v-88.276h-88.276V292.204z"/>
		<path style="fill:#B6B6B6;" d="M387.313,309.859H281.382c-5.297,0-8.828-3.531-8.828-8.828V195.1c0-5.297,3.531-8.828,8.828-8.828
			h105.931c5.297,0,8.828,3.531,8.828,8.828v105.931C396.14,306.328,392.609,309.859,387.313,309.859z M290.209,292.204h88.276
			v-88.276h-88.276V292.204z"/>
		<path style="fill:#B6B6B6;" d="M228.416,468.755H122.485c-5.297,0-8.828-3.531-8.828-8.828V353.997
			c0-5.297,3.531-8.828,8.828-8.828h105.931c5.297,0,8.828,3.531,8.828,8.828v105.931
			C237.244,465.224,233.713,468.755,228.416,468.755z M131.313,451.1h88.276v-88.276h-88.276V451.1z"/>
		<path style="fill:#B6B6B6;" d="M387.313,468.755H281.382c-5.297,0-8.828-3.531-8.828-8.828V353.997
			c0-5.297,3.531-8.828,8.828-8.828h105.931c5.297,0,8.828,3.531,8.828,8.828v105.931
			C396.14,465.224,392.609,468.755,387.313,468.755z M290.209,451.1h88.276v-88.276h-88.276V451.1z"/>
		<path style="fill:#B6B6B6;" d="M457.933,362.824c-5.297,0-8.828-3.531-8.828-8.828V202.162L254.899,22.08L60.692,202.162v37.076
			c0,5.297-3.531,8.828-8.828,8.828s-8.828-3.531-8.828-8.828v-40.607c0-2.648,0.883-4.414,2.648-6.179L248.72,3.542
			c3.531-3.531,8.828-3.531,12.359,0l203.034,188.91c1.766,1.766,2.648,4.414,2.648,6.179v155.366
			C466.761,359.293,463.23,362.824,457.933,362.824z"/>
		<path style="fill:#B6B6B6;" d="M457.933,512.893H51.864c-5.297,0-8.828-3.531-8.828-8.828V309.859
			c0-5.297,3.531-8.828,8.828-8.828s8.828,3.531,8.828,8.828v185.379h388.414v-70.621c0-5.297,3.531-8.828,8.828-8.828
			s8.828,3.531,8.828,8.828v79.448C466.761,509.362,463.23,512.893,457.933,512.893z"/>
		<path style="fill:#B6B6B6;" d="M60.692,274.548c0,5.297-3.531,8.828-8.828,8.828s-8.828-3.531-8.828-8.828
			c0-5.297,3.531-8.828,8.828-8.828S60.692,269.252,60.692,274.548"/>
		<path style="fill:#B6B6B6;" d="M466.761,389.307c0,5.297-3.531,8.828-8.828,8.828s-8.828-3.531-8.828-8.828
			s3.531-8.828,8.828-8.828S466.761,384.011,466.761,389.307"/>
	</g>
</g>
<g>
</g>
<g>
</g>
<g>
</g>
<g>
</g>
<g>
</g>
<g>
</g>
<g>
</g>
<g>
</g>
<g>
</g>
<g>
</g>
<g>
</g>
<g>
</g>
<g>
</g>
<g>
</g>
<g>
</g>
</svg>
