<?xml version="1.0" encoding="iso-8859-1"?>
<!-- Generator: Adobe Illustrator 19.0.0, SVG Export Plug-In . SVG Version: 6.00 Build 0)  -->
<svg version="1.1" id="Layer_1" xmlns="http://www.w3.org/2000/svg" xmlns:xlink="http://www.w3.org/1999/xlink" x="0px" y="0px"
	 viewBox="0 0 512 512" style="enable-background:new 0 0 512 512;" xml:space="preserve">
<g transform="translate(1 1)">
	<path style="fill:#F0F0F0;" d="M458.093,242.307L255,86.147L51.907,242.307c-10.24,7.68-25.6,6.827-34.133-2.56
		c-10.24-11.093-8.533-28.16,2.56-37.547L255,16.173L489.667,202.2c11.947,9.387,12.8,26.453,2.56,37.547
		C483.693,249.133,468.333,250.84,458.093,242.307"/>
	<polygon style="fill:#FFFFFF;" points="255,86.147 58.733,237.187 58.733,238.04 58.733,494.04 263.533,494.04 	"/>
	<polygon style="fill:#CCCCCC;" points="255,86.147 255,494.04 451.267,494.04 451.267,238.04 451.267,237.187 	"/>
	<polygon style="fill:#E2E3E5;" points="255,86.147 84.333,237.187 84.333,238.04 84.333,494.04 425.667,494.04 425.667,238.04 
		425.667,237.187 	"/>
	<g>
		<polygon style="fill:#F0F0F0;" points="127,297.773 229.4,297.773 229.4,229.507 127,229.507 		"/>
		<polygon style="fill:#F0F0F0;" points="127,434.307 229.4,434.307 229.4,348.973 127,348.973 		"/>
		<polygon style="fill:#F0F0F0;" points="280.6,297.773 383,297.773 383,229.507 280.6,229.507 		"/>
	</g>
	<polygon style="fill:#E0E0E0;" points="280.6,494.04 383,494.04 383,348.973 280.6,348.973 	"/>
	<polygon style="fill:#F0F0F0;" points="280.6,494.04 357.4,494.04 357.4,348.973 280.6,348.973 	"/>
	<g>
		<path style="fill:#B6B6B6;" d="M229.4,306.307H127c-5.12,0-8.533-3.413-8.533-8.533v-68.267c0-5.12,3.413-8.533,8.533-8.533h102.4
			c5.12,0,8.533,3.413,8.533,8.533v68.267C237.933,302.893,234.52,306.307,229.4,306.307z M135.533,289.24h85.333v-51.2h-85.333
			V289.24z"/>
		<path style="fill:#B6B6B6;" d="M229.4,442.84H127c-5.12,0-8.533-3.413-8.533-8.533v-85.333c0-5.12,3.413-8.533,8.533-8.533h102.4
			c5.12,0,8.533,3.413,8.533,8.533v85.333C237.933,439.427,234.52,442.84,229.4,442.84z M135.533,425.773h85.333v-68.267h-85.333
			V425.773z"/>
		<path style="fill:#B6B6B6;" d="M383,306.307H280.6c-5.12,0-8.533-3.413-8.533-8.533v-68.267c0-5.12,3.413-8.533,8.533-8.533H383
			c5.12,0,8.533,3.413,8.533,8.533v68.267C391.533,302.893,388.12,306.307,383,306.307z M289.133,289.24h85.333v-51.2h-85.333
			V289.24z"/>
		<path style="fill:#B6B6B6;" d="M36.547,256.813c-9.387,0-17.92-3.413-24.747-11.093c-6.827-6.827-9.387-16.213-9.387-25.6
			c0.853-9.387,5.12-17.92,12.8-23.893L249.88,9.347c3.413-2.56,7.68-2.56,10.24,0l234.667,186.027
			c7.68,5.973,11.947,14.507,12.8,23.893c0.853,9.387-2.56,18.773-9.387,25.6c-11.947,12.8-31.573,14.507-46.08,3.413l0,0L255,97.24
			L57.027,249.133C51.053,254.253,43.373,256.813,36.547,256.813z M255,27.267L26.307,209.027c-4.267,3.413-5.973,7.68-6.827,11.947
			c0,5.12,0.853,9.387,4.267,12.8c5.973,6.827,16.213,7.68,23.04,1.707L249.88,79.32c3.413-2.56,7.68-2.56,10.24,0l203.093,156.16
			c6.827,5.12,17.067,4.267,23.04-1.707c3.413-3.413,5.12-8.533,4.267-12.8c0-5.12-2.56-9.387-6.827-11.947L255,27.267z"/>
		<path style="fill:#B6B6B6;" d="M451.267,502.573H58.733c-5.12,0-8.533-3.413-8.533-8.533V357.507c0-5.12,3.413-8.533,8.533-8.533
			s8.533,3.413,8.533,8.533v128h375.467V241.453L255,96.387L67.267,241.453v30.72c0,5.12-3.413,8.533-8.533,8.533
			s-8.533-3.413-8.533-8.533V238.04c0-2.56,0.853-5.973,3.413-7.68L249.88,79.32c3.413-2.56,7.68-2.56,10.24,0l196.267,151.04
			c1.707,1.707,3.413,4.267,3.413,6.827V494.04C459.8,499.16,456.387,502.573,451.267,502.573z"/>
		<path style="fill:#B6B6B6;" d="M383,502.573H280.6c-5.12,0-8.533-3.413-8.533-8.533V348.973c0-5.12,3.413-8.533,8.533-8.533H383
			c5.12,0,8.533,3.413,8.533,8.533V494.04C391.533,499.16,388.12,502.573,383,502.573z M289.133,485.507h85.333v-128h-85.333
			V485.507z"/>
		<path style="fill:#B6B6B6;" d="M7.533,502.573c-5.12,0-8.533-3.413-8.533-8.533v-76.8c0-5.12,3.413-8.533,8.533-8.533
			s8.533,3.413,8.533,8.533v76.8C16.067,499.16,12.653,502.573,7.533,502.573z"/>
		<path style="fill:#B6B6B6;" d="M33.133,502.573c-5.12,0-8.533-3.413-8.533-8.533v-76.8c0-5.12,3.413-8.533,8.533-8.533
			s8.533,3.413,8.533,8.533v76.8C41.667,499.16,38.253,502.573,33.133,502.573z"/>
		<path style="fill:#B6B6B6;" d="M476.867,502.573c-5.12,0-8.533-3.413-8.533-8.533v-76.8c0-5.12,3.413-8.533,8.533-8.533
			c5.12,0,8.533,3.413,8.533,8.533v76.8C485.4,499.16,481.987,502.573,476.867,502.573z"/>
		<path style="fill:#B6B6B6;" d="M502.467,502.573c-5.12,0-8.533-3.413-8.533-8.533v-76.8c0-5.12,3.413-8.533,8.533-8.533
			c5.12,0,8.533,3.413,8.533,8.533v76.8C511,499.16,507.587,502.573,502.467,502.573z"/>
		<path style="fill:#B6B6B6;" d="M58.733,442.84h-51.2c-5.12,0-8.533-3.413-8.533-8.533c0-5.12,3.413-8.533,8.533-8.533h51.2
			c5.12,0,8.533,3.413,8.533,8.533C67.267,439.427,63.853,442.84,58.733,442.84z"/>
		<path style="fill:#B6B6B6;" d="M58.733,485.507h-51.2c-5.12,0-8.533-3.413-8.533-8.533s3.413-8.533,8.533-8.533h51.2
			c5.12,0,8.533,3.413,8.533,8.533S63.853,485.507,58.733,485.507z"/>
		<path style="fill:#B6B6B6;" d="M502.467,442.84h-51.2c-5.12,0-8.533-3.413-8.533-8.533c0-5.12,3.413-8.533,8.533-8.533h51.2
			c5.12,0,8.533,3.413,8.533,8.533C511,439.427,507.587,442.84,502.467,442.84z"/>
		<path style="fill:#B6B6B6;" d="M502.467,485.507h-51.2c-5.12,0-8.533-3.413-8.533-8.533s3.413-8.533,8.533-8.533h51.2
			c5.12,0,8.533,3.413,8.533,8.533S507.587,485.507,502.467,485.507z"/>
		<path style="fill:#B6B6B6;" d="M178.2,442.84c-5.12,0-8.533-3.413-8.533-8.533v-85.333c0-5.12,3.413-8.533,8.533-8.533
			c5.12,0,8.533,3.413,8.533,8.533v85.333C186.733,439.427,183.32,442.84,178.2,442.84z"/>
		<path style="fill:#B6B6B6;" d="M229.4,400.173H127c-5.12,0-8.533-3.413-8.533-8.533s3.413-8.533,8.533-8.533h102.4
			c5.12,0,8.533,3.413,8.533,8.533S234.52,400.173,229.4,400.173z"/>
		<path style="fill:#B6B6B6;" d="M229.4,272.173H127c-5.12,0-8.533-3.413-8.533-8.533s3.413-8.533,8.533-8.533h102.4
			c5.12,0,8.533,3.413,8.533,8.533S234.52,272.173,229.4,272.173z"/>
		<path style="fill:#B6B6B6;" d="M383,272.173H280.6c-5.12,0-8.533-3.413-8.533-8.533s3.413-8.533,8.533-8.533H383
			c5.12,0,8.533,3.413,8.533,8.533S388.12,272.173,383,272.173z"/>
		<path style="fill:#B6B6B6;" d="M58.733,331.907c-5.12,0-8.533-3.413-8.533-8.533v-17.067c0-5.12,3.413-8.533,8.533-8.533
			s8.533,3.413,8.533,8.533v17.067C67.267,328.493,63.853,331.907,58.733,331.907z"/>
	</g>
</g>
<g>
</g>
<g>
</g>
<g>
</g>
<g>
</g>
<g>
</g>
<g>
</g>
<g>
</g>
<g>
</g>
<g>
</g>
<g>
</g>
<g>
</g>
<g>
</g>
<g>
</g>
<g>
</g>
<g>
</g>
</svg>
