<?xml version="1.0" ?><svg width="64px" height="64px" viewBox="0 0 64 64" xmlns="http://www.w3.org/2000/svg"><g id="a"/><g id="b"/><g id="c"/><g id="d"/><g id="e"/><g id="f"/><g id="g"/><g id="h"/><g id="i"/><g id="j"/><g id="k"/><g id="l"/><g id="m"/><g id="n"/><g id="o"/><g id="p"/><g id="q"/><g id="r"/><g id="s"/><g id="t"/><g id="u"/><g id="v"/><g id="w"><path d="M52.84,34.2c.21-1.22,.31-2.46,.31-3.69,0-3.51-.83-6.97-2.42-10.09l-13.72-11.3c-1.99-.57-4.04-.85-6.11-.85-10.27,0-19.21,7.03-21.63,17.02,0,0,.76,16.51,21.52,15.67,20.77-.84,22.04-6.74,22.04-6.74Z" fill="#fdc99c" fill-rule="evenodd"/><path d="M48.35,31.31c.01-.27,.02-.53,.02-.8,0-3.62-1.12-7.14-3.21-10.09l-5.74-5.16c-2.61-1.46-5.54-2.22-8.53-2.22-7.8,0-14.66,5.17-16.8,12.68,0,0,2.33,17.06,17.06,15.05,14.74-2.01,17.2-9.45,17.2-9.45Z" fill="#ffa6c5" fill-rule="evenodd"/><path d="M43.53,29.69c-.24-3.68-2.07-7.08-5.01-9.3l-7.36-2.55c-.09,0-.17,0-.26,0-5.63,0-10.59,3.72-12.16,9.13,0,0,1.44,8.71,11.75,10.48,10.3,1.78,13.05-7.77,13.05-7.77Z" fill="#62d9fa" fill-rule="evenodd"/><path d="M23.39,29.35c.57-3.7,3.76-6.44,7.51-6.44s6.79,2.6,7.46,6.18c0,0,.97,8.56-8.24,7.41-9.21-1.15-6.74-7.16-6.74-7.16Z" fill="#f0f4f6" fill-rule="evenodd"/><path d="M9.01,25.28c-3.97,.01-4.01,2.33-4.01,3.79v19.03L25.64,31.11s-5.6-5.86-16.62-5.83Z" fill="#6df4c0" fill-rule="evenodd"/><path d="M5,48.11v5.89c0,1.96,1.58,3.54,3.54,3.54H55.46c1.96,0,3.54-1.58,3.54-3.54v-5.87l-23.47-4.97-30.53,4.96Z" fill="#feccba" fill-rule="evenodd"/><path d="M56,6.47c1.43,0,2.58,1.15,2.58,2.58s-1.15,2.58-2.58,2.58h-2.56c-1,0-1.8,.81-1.8,1.81s.8,1.81,1.8,1.81h.83c1.43,0,2.58,1.15,2.58,2.58s-1.15,2.58-2.58,2.58h-20.54c-1.43,0-2.58-1.15-2.58-2.58s1.15-2.58,2.58-2.58h6.95c1,0,1.81-.81,1.81-1.81s-.81-1.81-1.81-1.81h-1.1c-1.43,0-2.58-1.15-2.58-2.58s1.15-2.58,2.58-2.58h16.42Z" fill="#d1f1f4" fill-rule="evenodd"/><path d="M59,48.12c0-1.88-.01-4.85-.42-5.87-1.61-4.04-6.84-13.17-21.1-13.17s-28.35,10.35-31.29,14.2c-.99,1.29-1.19,3.45-1.19,4.83H59Z" fill="#9af6d3" fill-rule="evenodd"/><path d="M37.48,29.08c-12.33,1.02-17.02,9.29-18.54,13.07-.4,1.02-1.25,3.98-1.25,5.86l.17,.1H59c0-1.87-.01-4.84-.42-5.86-1.61-4.04-6.84-13.18-21.1-13.18Z" fill="#6df4c0" fill-rule="evenodd"/><path d="M54.37,43.77c-.55,0-1,.45-1,1v.65c-.33-.17-.74-.39-.74-.39-.53-.13-1.08,.2-1.21,.73-.13,.53,.2,1.08,.73,1.21,0,0,.87,.12,1.26,1.42,.13,.42,.52,.71,.96,.71s.83-.29,.96-.71c.4-1.3,1.26-1.42,1.26-1.42,.53-.13,.86-.68,.73-1.21-.13-.53-.68-.86-1.21-.73,0,0-.41,.21-.74,.38v-.65c0-.55-.45-1-1-1Z" fill="#49cc8c" fill-rule="evenodd"/><path d="M36.24,43.77c-.55,0-1,.45-1,1v.65c-.33-.17-.74-.38-.74-.38-.53-.13-1.08,.2-1.21,.73-.02,.08-.03,.16-.03,.24,0,.46,.32,.86,.76,.97,0,0,.87,.12,1.26,1.42,.13,.42,.52,.71,.96,.71s.83-.29,.96-.71c.4-1.3,1.26-1.42,1.26-1.42,.53-.13,.86-.68,.73-1.21-.13-.53-.68-.86-1.21-.73,0,0-.41,.21-.74,.39v-.65c0-.55-.45-1-1-1Z" fill="#49cc8c" fill-rule="evenodd"/><path d="M46.76,53.19c-.55,0-1,.45-1,1v.65c-.33-.17-.74-.38-.74-.38-.53-.13-1.08,.2-1.21,.73-.13,.53,.2,1.08,.73,1.21,0,0,.86,.12,1.26,1.43,.13,.42,.52,.71,.96,.71s.83-.29,.96-.71c.4-1.3,1.26-1.43,1.26-1.43,.53-.13,.86-.68,.73-1.21-.13-.53-.68-.86-1.21-.73,0,0-.41,.21-.74,.39v-.65c0-.55-.45-1-1-1Z" fill="#49cc8c" fill-rule="evenodd"/><path d="M24.9,53.19c-.55,0-1,.45-1,1v.65c-.33-.17-.74-.39-.74-.39-.53-.13-1.08,.2-1.21,.73-.13,.53,.2,1.08,.73,1.21,0,0,.87,.12,1.26,1.43,.13,.42,.52,.71,.96,.71s.83-.29,.96-.71c.4-1.3,1.26-1.43,1.26-1.43,.53-.13,.86-.68,.73-1.21-.13-.53-.68-.86-1.21-.73,0,0-.41,.21-.74,.38v-.65c0-.55-.45-1-1-1Z" fill="#49cc8c" fill-rule="evenodd"/></g><g id="x"/><g id="y"/><g id="a`"/><g id="aa"/><g id="ab"/><g id="ac"/><g id="ad"/><g id="ae"/><g id="af"/><g id="ag"/><g id="ah"/><g id="ai"/><g id="aj"/><g id="ak"/><g id="al"/><g id="am"/><g id="an"/><g id="ao"/><g id="ap"/><g id="aq"/><g id="ar"/><g id="as"/><g id="at"/><g id="au"/><g id="av"/><g id="aw"/><g id="ax"/></svg>