<?xml version="1.0" encoding="iso-8859-1"?>
<!-- Generator: Adobe Illustrator 19.0.0, SVG Export Plug-In . SVG Version: 6.00 Build 0)  -->
<svg version="1.1" id="Layer_1" xmlns="http://www.w3.org/2000/svg" xmlns:xlink="http://www.w3.org/1999/xlink" x="0px" y="0px"
	 viewBox="0 0 512 512" style="enable-background:new 0 0 512 512;" xml:space="preserve">
<g>
	<g>
		<g>
			<path d="M501.442,305.772c-0.393-0.393-53.326-38.991-53.326-38.991V69.411c7.927-6.369,13.015-16.133,13.015-27.07
				c0-19.142-15.575-34.717-34.717-34.717c-17.897,0-32.672,13.614-34.519,31.029L4.724,303.231
				c-0.011,0.007-0.02,0.014-0.031,0.021l-0.037,0.026v0.003C1.845,305.205,0,308.434,0,312.097v106.821
				c0,5.9,4.782,10.682,10.682,10.682s10.682-4.782,10.682-10.682v-10.682h78.514V429.6H67.832
				c-20.615,0-37.387,16.772-37.387,37.387s16.772,37.387,37.387,37.387h170.914c20.615,0,37.388-16.772,37.388-37.387
				S259.361,429.6,238.746,429.6h-32.046v-21.364h76.38c5.9,0,10.682-4.782,10.682-10.682v-65.247c0-6.165-1.081-12.08-3.05-17.576
				l93.158-94.428c1.111-1.126,1.958-2.485,2.479-3.978l40.402-115.587V266.78c0,0-52.933,38.599-53.326,38.991
				c-11.666,11.667-13.959,29.727-5.575,43.921c0,0,10.283,17.358,13.995,24.523l7.258,14.01c1.866,3.602,5.632,5.839,9.666,5.766
				c4.056-0.068,7.722-2.429,9.464-6.092l19.035-40.017h20.139l17.689,39.77c1.644,3.694,5.231,6.143,9.27,6.329
				c0.165,0.007,0.329,0.012,0.492,0.012c3.852,0,7.424-2.08,9.318-5.463l3.644-6.505l18.399-31.043
				C515.449,336.76,513.46,317.79,501.442,305.772z M21.364,386.872v-64.093h170.914v64.093H21.364z M185.335,408.236V429.6h-64.093
				v-21.364H185.335z M238.746,450.964c8.835,0,16.023,7.188,16.023,16.023s-7.188,16.023-16.023,16.023H67.832
				c-8.835,0-16.023-7.188-16.023-16.023s7.188-16.023,16.023-16.023H238.746z M202.964,280.05c-5.9,0-10.682,4.782-10.682,10.682
				v10.682H45.247L376.211,75.249l-124.827,205.75c-3.201-0.615-6.501-0.949-9.879-0.949H202.964z M272.398,386.872h-58.752v-24.569
				h58.752V386.872z M272.398,340.938h-58.752v-39.524h27.859c17.034,0,30.893,13.859,30.893,30.893V340.938z M279.107,296.074
				c-2.375-2.463-4.986-4.696-7.802-6.658l-0.023-0.025l58.343-96.165l30.151,21.079L279.107,296.074z M370.833,195.968
				l-30.104-21.047l64.003-105.495c2.581,2.07,5.461,3.779,8.566,5.052L370.833,195.968z M426.414,55.695
				c-7.363,0-13.353-5.99-13.353-13.353c0-7.363,5.991-13.353,13.353-13.353c7.363,0,13.353,5.989,13.353,13.353
				C439.766,49.705,433.777,55.695,426.414,55.695z M488.235,339.445c-0.095,0.144-12.117,20.419-12.117,20.419l-12.011-27.006
				c-1.716-3.856-5.541-6.341-9.76-6.341H420.52c-4.122,0-7.876,2.371-9.646,6.094l-12.73,26.764
				c-3.244-5.937-11.9-20.549-11.9-20.549c-3.301-5.588-2.546-12.648,1.788-17.424l49.401-35.972l49.401,35.972
				C491.327,326.358,491.943,333.829,488.235,339.445z"/>
			<path d="M61.412,344.143h-0.345c-5.9,0-10.682,4.782-10.682,10.682c0,5.9,4.782,10.682,10.682,10.682h0.345
				c5.9,0,10.682-4.782,10.682-10.682C72.094,348.926,67.311,344.143,61.412,344.143z"/>
			<path d="M154.713,344.143H97.742c-5.9,0-10.682,4.782-10.682,10.682c0,5.9,4.782,10.682,10.682,10.682h56.971
				c5.9,0,10.682-4.782,10.682-10.682C165.395,348.926,160.612,344.143,154.713,344.143z"/>
		</g>
	</g>
</g>
<g>
</g>
<g>
</g>
<g>
</g>
<g>
</g>
<g>
</g>
<g>
</g>
<g>
</g>
<g>
</g>
<g>
</g>
<g>
</g>
<g>
</g>
<g>
</g>
<g>
</g>
<g>
</g>
<g>
</g>
</svg>
