<?xml version="1.0" encoding="iso-8859-1"?>
<!-- Generator: Adobe Illustrator 19.0.0, SVG Export Plug-In . SVG Version: 6.00 Build 0)  -->
<svg version="1.1" id="Layer_1" xmlns="http://www.w3.org/2000/svg" xmlns:xlink="http://www.w3.org/1999/xlink" x="0px" y="0px"
	 viewBox="0 0 512 512" style="enable-background:new 0 0 512 512;" xml:space="preserve">
<g>
	<g>
		<g>
			<path d="M486.134,181.511c-2.336,0-4.236-1.9-4.236-4.235v-24.92h7.931c5.973,0,10.815-4.843,10.815-10.815v-43.26
				c0-5.972-4.842-10.815-10.815-10.815h-77.164c-1.871-3.229-5.356-5.408-9.356-5.408H10.815C4.842,82.059,0,86.902,0,92.874
				v101.301c0,5.972,4.842,10.815,10.815,10.815c5.973,0,10.815-4.843,10.815-10.815v-36.411h103.579L227.205,259.76v25.261h-48.757
				v-43.26c0-5.972-4.842-10.815-10.815-10.815H10.815C4.842,230.945,0,235.788,0,241.76v118.965
				c0,5.972,4.842,10.815,10.815,10.815h11.454c-0.114,1.429-0.188,2.868-0.188,4.326c0,29.817,24.258,54.075,54.075,54.075
				c17.671,0,33.386-8.52,43.26-21.668c9.874,13.147,25.589,21.668,43.26,21.668c1.884,0,3.745-0.098,5.581-0.288h65.798
				c5.973,0,10.815-4.843,10.815-10.815s-4.842-10.815-10.815-10.815h-27.936c6.675-8.994,10.632-20.121,10.632-32.157
				c0-1.458-0.075-2.897-0.188-4.326h93.386c-0.114,1.429-0.188,2.868-0.188,4.326c0,29.817,24.258,54.075,54.075,54.075
				s54.075-24.258,54.075-54.075c0-1.457-0.075-2.895-0.188-4.323l32.633-0.003c5.973,0,10.815-4.843,10.815-10.815v-43.26
				c0-5.972-4.842-10.815-10.815-10.815h-3.245v-33.523c0-1.074-0.16-2.141-0.474-3.169l-25.956-84.724
				c-1.393-4.544-5.588-7.647-10.341-7.647h-85.795c-5.973,0-10.815,4.843-10.815,10.815v15.505h-23.643l-46.144-46.144H403.31
				c4,0,7.485-2.178,9.356-5.408h47.602v24.92c0,14.263,11.603,25.865,25.866,25.865c2.336,0,4.236,1.9,4.236,4.236v9.598
				c0,2.336-1.9,4.236-4.236,4.236h-15.051c-5.973,0-10.815,4.843-10.815,10.815s4.842,10.815,10.815,10.815h15.05
				c14.263,0,25.866-11.603,25.866-25.866v-9.598C512,193.115,500.397,181.511,486.134,181.511z M439.54,349.91h-21.63v-21.63h21.63
				V349.91z M381.496,199.218h20.846l20.764,67.778h-41.61V199.218z M335.359,199.218h24.507v78.593
				c0,5.972,4.842,10.815,10.815,10.815h54.8v18.025h-18.385c-5.973,0-10.815,4.843-10.815,10.815v15.17
				c-9.045-6.805-20.281-10.844-32.445-10.844c-10.444,0-20.2,2.985-28.476,8.133V199.218z M363.835,343.421
				c17.89,0,32.445,14.555,32.445,32.445c0,17.89-14.556,32.445-32.445,32.445c-17.89,0-32.445-14.555-32.445-32.445
				C331.39,357.976,345.944,343.421,363.835,343.421z M21.63,252.575h135.187v32.445H21.63V252.575z M76.156,408.311
				c-17.89,0-32.445-14.555-32.445-32.445c0-17.89,14.555-32.445,32.445-32.445c17.89,0,32.445,14.555,32.445,32.445
				C108.601,393.756,94.045,408.311,76.156,408.311z M162.676,408.311c-17.89,0-32.445-14.555-32.445-32.445
				c0-17.89,14.555-32.445,32.445-32.445s32.445,14.555,32.445,32.445C195.121,393.756,180.566,408.311,162.676,408.311z
				 M313.724,349.91H210.099c-9.201-16.744-27.007-28.119-47.423-28.119c-17.671,0-33.386,8.52-43.26,21.668
				c-9.874-13.147-25.589-21.668-43.26-21.668c-20.417,0-38.222,11.376-47.423,28.119H21.63v-43.26h292.094V349.91z
				 M313.724,225.538v59.482h-64.89v-59.482H313.724z M259.496,203.908H238.02c-5.973,0-10.815,4.843-10.815,10.815v14.446
				L155.8,157.764h57.552L259.496,203.908z M392.494,136.134H21.63v-32.445h370.864V136.134z M479.014,130.726h-64.89v-21.63h64.89
				V130.726z"/>
			<path d="M274.881,408.311h-1.893c-5.973,0-10.815,4.843-10.815,10.815s4.842,10.815,10.815,10.815h1.893
				c5.973,0,10.815-4.843,10.815-10.815S280.853,408.311,274.881,408.311z"/>
		</g>
	</g>
</g>
<g>
</g>
<g>
</g>
<g>
</g>
<g>
</g>
<g>
</g>
<g>
</g>
<g>
</g>
<g>
</g>
<g>
</g>
<g>
</g>
<g>
</g>
<g>
</g>
<g>
</g>
<g>
</g>
<g>
</g>
</svg>
